<svg id="visual" viewBox="0 0 900 600" width="900" height="600" xmlns="http://www.w3.org/2000/svg" xmlns:xlink="http://www.w3.org/1999/xlink" version="1.1"><rect x="0" y="0" width="900" height="600" fill="#ffffff"></rect><defs><linearGradient id="grad1_0" x1="33.3%" y1="100%" x2="100%" y2="0%"><stop offset="20%" stop-color="#ffffff" stop-opacity="1"></stop><stop offset="80%" stop-color="#ffffff" stop-opacity="1"></stop></linearGradient></defs><defs><linearGradient id="grad2_0" x1="0%" y1="100%" x2="66.7%" y2="0%"><stop offset="20%" stop-color="#ffffff" stop-opacity="1"></stop><stop offset="80%" stop-color="#ffffff" stop-opacity="1"></stop></linearGradient></defs><g transform="translate(900, 600)"><path d="M-486.7 0C-455.9 -25.5 -425 -51 -425.7 -84.7C-426.4 -118.3 -458.6 -160 -449.7 -186.3C-440.7 -212.5 -390.6 -223.3 -357.5 -238.9C-324.5 -254.5 -308.6 -275.1 -286.4 -286.4C-264.1 -297.7 -235.5 -299.8 -220.6 -330.1C-205.6 -360.4 -204.3 -418.8 -184.8 -446.2C-165.4 -473.7 -127.7 -470.2 -93.8 -471.8C-60 -473.3 -30 -480 0 -486.7L0 0Z" fill="#715DF2"></path></g><g transform="translate(0, 0)"><path d="M486.7 0C462.5 28.2 438.3 56.4 431.5 85.8C424.8 115.3 435.6 146.1 438.8 181.8C442.1 217.5 437.9 258.2 404.7 270.4C371.5 282.6 309.4 266.4 281.4 281.4C253.5 296.5 259.7 342.8 243.3 364.2C227 385.6 188 382.1 156.9 378.8C125.8 375.5 102.5 372.3 77.6 390.4C52.8 408.4 26.4 447.6 0 486.7L0 0Z" fill="#715DF2"></path></g></svg>