<?xml version="1.0" encoding="UTF-8"?>
<svg xmlns="http://www.w3.org/2000/svg" id="Layer_1" data-name="Layer 1" viewBox="0 0 24 24">
  <path d="m23.94,7.747c-.865-3.805-3.882-6.823-7.688-7.688-.553-.125-1.125.004-1.568.356-.435.347-.685.866-.685,1.422v5.662c0,1.378,1.121,2.5,2.5,2.5h5.662s.001,0,.001,0c.556,0,1.074-.25,1.421-.684.353-.442.483-1.014.357-1.568Zm-1.138.944c-.156.196-.39.308-.64.308h-5.663c-.827,0-1.5-.674-1.5-1.5V1.837c0-.25.112-.483.309-.64.204-.162.468-.221.723-.163,3.432.781,6.154,3.503,6.934,6.936.058.256-.001.519-.163.722Zm-3.219,3.309h-6.083c-.827,0-1.5-.673-1.5-1.5v-6.083c0-.856-.246-1.504-.731-1.925-.647-.562-1.502-.513-1.839-.464C3.746,2.841-.383,8.013.029,13.802c.385,5.412,4.757,9.785,10.169,10.169.267.019.532.028.796.028,5.46,0,10.203-4.007,10.978-9.429.048-.337.099-1.191-.464-1.839-.421-.485-1.068-.731-1.925-.731Zm1.398,2.429c-.739,5.167-5.448,8.918-10.712,8.545-4.839-.344-8.899-4.405-9.244-9.244C.651,8.462,4.404,3.757,9.571,3.018c.051-.007.143-.018.255-.018.232,0,.554.043.788.247.257.223.387.616.387,1.169v6.083c0,1.378,1.122,2.5,2.5,2.5h6.083c.554,0,.947.13,1.169.387.301.347.251.886.229,1.042Z"/>
</svg>
