<?xml version="1.0" encoding="UTF-8"?>
<svg xmlns="http://www.w3.org/2000/svg" id="Layer_1" data-name="Layer 1" viewBox="0 0 24 24" width="512" height="512">
  <path d="m14,13.842c0-.568-.407-1.048-.968-1.142l-2.238-.415c-1.036-.173-1.794-1.068-1.794-2.127,0-1.19.968-2.158,2.158-2.158h.342v-.5c0-.276.224-.5.5-.5s.5.224.5.5v.5h.342c1.251,0,2.158.841,2.158,2,0,.276-.224.5-.5.5s-.5-.224-.5-.5c0-.691-.582-1-1.158-1h-1.684c-.639,0-1.158.52-1.158,1.158,0,.568.407,1.048.967,1.142l2.238.415c1.036.173,1.795,1.068,1.795,2.127,0,1.19-.968,2.158-2.158,2.158h-.342v.5c0,.276-.224.5-.5.5s-.5-.224-.5-.5v-.5h-.342c-1.25,0-2.158-.841-2.158-2,0-.276.224-.5.5-.5s.5.224.5.5c0,.691.582,1,1.158,1h1.684c.639,0,1.158-.52,1.158-1.158ZM23.635,2.555L21.227.146c-.195-.195-.512-.195-.707,0s-.195.512,0,.707l2.146,2.146h-10.665C7.038,3,3,7.038,3,12c0,2.133.759,4.202,2.139,5.824.099.116.239.176.381.176.114,0,.229-.039.323-.119.21-.179.236-.494.057-.705-1.226-1.442-1.9-3.281-1.9-5.177,0-4.411,3.589-8,8-8h10.666l-2.146,2.146c-.195.195-.195.512,0,.707.098.098.226.146.354.146s.256-.049.354-.146l2.408-2.408c.253-.252.392-.588.392-.945s-.139-.693-.392-.945Zm-5.457,3.585c-.211.178-.238.494-.06.705,1.214,1.439,1.882,3.27,1.882,5.155,0,4.411-3.589,8-8,8H1.334l2.147-2.146c.195-.195.195-.512,0-.707s-.512-.195-.707,0l-2.408,2.407c-.521.522-.521,1.371,0,1.893l2.408,2.407c.098.098.226.146.354.146s.256-.049.354-.146c.195-.195.195-.512,0-.707l-2.146-2.146h10.666c4.963,0,9-4.038,9-9,0-2.121-.752-4.181-2.118-5.799-.178-.211-.494-.237-.704-.06Z"/>
</svg>
