<?xml version="1.0" encoding="UTF-8"?>
<svg xmlns="http://www.w3.org/2000/svg" id="Layer_1" data-name="Layer 1" viewBox="0 0 24 24">
  <path d="M23.312,9.733c-.839-1.252-2.18-2.926-4.046-4.292l3.588-3.588c.195-.195,.195-.512,0-.707s-.512-.195-.707,0l-3.725,3.725c-1.743-1.089-3.877-1.872-6.421-1.872C6.082,3,2.373,7.219,.688,9.733c-.922,1.377-.922,3.156,0,4.533,.839,1.252,2.18,2.926,4.046,4.292l-3.588,3.588c-.195,.195-.195,.512,0,.707,.098,.098,.226,.146,.354,.146s.256-.049,.354-.146l3.725-3.725c1.743,1.089,3.877,1.872,6.421,1.872,5.918,0,9.627-4.219,11.312-6.733,.922-1.377,.922-3.156,0-4.533ZM1.52,13.71c-.696-1.039-.696-2.381,0-3.42,1.573-2.349,5.027-6.29,10.48-6.29,2.23,0,4.12,.664,5.689,1.604l-2.543,2.543c-.862-.705-1.948-1.146-3.146-1.146-2.757,0-5,2.243-5,5,0,1.198,.441,2.284,1.146,3.146l-2.692,2.692c-1.818-1.297-3.126-2.922-3.935-4.129Zm7.334,.73c-.527-.677-.853-1.517-.853-2.44,0-2.206,1.794-4,4-4,.922,0,1.762,.327,2.44,.853l-5.587,5.587Zm6.294-4.88c.527,.677,.853,1.517,.853,2.44,0,2.206-1.794,4-4,4-.922,0-1.762-.327-2.44-.853l5.587-5.587Zm7.334,4.15c-1.573,2.349-5.027,6.29-10.48,6.29-2.23,0-4.12-.664-5.689-1.604l2.543-2.543c.862,.705,1.948,1.146,3.146,1.146,2.757,0,5-2.243,5-5,0-1.198-.441-2.284-1.146-3.146l2.692-2.692c1.818,1.297,3.126,2.922,3.935,4.129,.696,1.039,.696,2.381,0,3.42Z"/>
</svg>
