<?xml version="1.0" encoding="UTF-8"?>
<svg xmlns="http://www.w3.org/2000/svg" id="Layer_1" data-name="Layer 1" viewBox="0 0 24 24">
  <path d="M23.312,9.733c-1.684-2.515-5.394-6.733-11.312-6.733S2.373,7.219,.688,9.733c-.922,1.377-.922,3.156,0,4.533,1.684,2.515,5.394,6.733,11.312,6.733s9.627-4.219,11.312-6.733c.922-1.377,.922-3.156,0-4.533Zm-.831,3.977c-1.573,2.349-5.027,6.29-10.48,6.29S3.093,16.059,1.52,13.71c-.696-1.039-.696-2.381,0-3.42,1.573-2.349,5.027-6.29,10.48-6.29s8.907,3.941,10.48,6.29c.696,1.039,.696,2.381,0,3.42ZM12,7c-2.757,0-5,2.243-5,5s2.243,5,5,5,5-2.243,5-5-2.243-5-5-5Zm0,9c-2.206,0-4-1.794-4-4s1.794-4,4-4,4,1.794,4,4-1.794,4-4,4Z"/>
</svg>
