<?xml version="1.0" encoding="UTF-8"?>
<svg xmlns="http://www.w3.org/2000/svg" id="Layer_1" data-name="Layer 1" viewBox="0 0 24 24">
  <path d="m22.017,5.831l-1.017-.686V1.5c0-.276-.224-.5-.5-.5s-.5.224-.5.5v2.97L14.518.771c-1.528-1.032-3.504-1.033-5.035,0L1.983,5.831c-1.242.838-1.983,2.232-1.983,3.729v9.939c0,2.481,2.019,4.5,4.5,4.5h15c2.481,0,4.5-2.019,4.5-4.5v-9.939c0-1.497-.741-2.892-1.983-3.729Zm.983,13.669c0,1.93-1.57,3.5-3.5,3.5H4.5c-1.93,0-3.5-1.57-3.5-3.5v-9.939c0-1.164.577-2.249,1.542-2.901L10.042,1.599c.595-.401,1.276-.602,1.958-.602s1.363.2,1.958.602l7.5,5.061c.966.652,1.542,1.736,1.542,2.901v9.939Zm-8.462-10.5c-1.08,0-1.976.479-2.5,1.254-.524-.774-1.42-1.254-2.5-1.254-1.654,0-3,1.436-3,3.2,0,2.331,2.818,5.193,4.309,6.381.351.28.771.42,1.191.42s.84-.14,1.191-.42c1.49-1.188,4.309-4.05,4.309-6.381,0-1.765-1.346-3.2-3-3.2Zm-1.933,8.8c-.334.268-.8.266-1.135,0-1.633-1.302-3.932-3.899-3.932-5.6,0-1.213.897-2.2,2-2.2,1.178,0,2,.804,2,1.954,0,.276.224.5.5.5s.5-.224.5-.5c0-1.15.822-1.954,2-1.954,1.103,0,2,.987,2,2.2,0,1.701-2.3,4.298-3.933,5.6Z"/>
</svg>
