<svg id="Layer_1" viewBox="0 0 24 24" xmlns="http://www.w3.org/2000/svg" data-name="Layer 1"><path d="m23.329 18.879-10.829-12.07v-1.809h2.584c.167.503.596 1 1.416 1h2c.827 0 1.5-.673 1.5-1.5v-2c0-.827-.673-1.5-1.5-1.5h-1.592c-.207-.581-.757-1-1.408-1h-2.5c-.827 0-1.5.673-1.5 1.5v5.309s-10.847 12.091-10.856 12.103c-.729.968-.846 2.243-.305 3.328.541 1.086 1.63 1.76 2.843 1.76h17.636c1.212 0 2.302-.674 2.843-1.759s.425-2.36-.332-3.362zm-4.329-16.379v2c0 .275-.225.5-.5.5h-2c-.182 0-.294-.061-.37-.143.512-.239.87-.755.87-1.357v-1.5h1.5c.275 0 .5.225.5.5zm-6.5-1c0-.275.224-.5.5-.5h2.5c.275 0 .5.225.5.5v2c0 .275-.225.5-.5.5h-3zm-.5 6.249 4.4 4.903-1.992 3.247c-.065.102-.187.108-.266.011l-1.237-1.703c-.094-.13-.244-.206-.404-.206h-.002c-.161 0-.312.078-.405.209l-1.914 2.68c-.118.123-.232.132-.342-.002l-2.628-3.797 4.792-5.341zm10.767 14.046c-.377.755-1.104 1.205-1.948 1.205h-17.637c-.844 0-1.572-.451-1.948-1.206-.374-.748-.3-1.593.197-2.264l5.092-5.675 2.493 3.601c.224.323.593.518.986.521h.008c.39 0 .758-.189.984-.507l1.51-2.114.83 1.142c.228.313.586.492.982.477.388-.015.74-.221.943-.552l1.837-2.994 5.461 6.086c.507.674.585 1.526.209 2.281z"/></svg>