<?xml version="1.0" encoding="UTF-8"?>
<svg xmlns="http://www.w3.org/2000/svg" id="Layer_1" data-name="Layer 1" viewBox="0 0 24 24">
  <path d="m8.5,0h-4C2.019,0,0,2.019,0,4.5v4c0,.827.673,1.5,1.5,1.5h7c.827,0,1.5-.673,1.5-1.5V1.5c0-.827-.673-1.5-1.5-1.5Zm.5,8.5c0,.276-.224.5-.5.5H1.5c-.276,0-.5-.224-.5-.5v-4c0-1.93,1.57-3.5,3.5-3.5h4c.276,0,.5.224.5.5v7Zm4.5,1.5h7c.827,0,1.5-.673,1.5-1.5v-4c0-2.481-2.019-4.5-4.5-4.5h-4c-.827,0-1.5.673-1.5,1.5v7c0,.827.673,1.5,1.5,1.5Zm-.5-8.5c0-.276.224-.5.5-.5h4c1.93,0,3.5,1.57,3.5,3.5v4c0,.276-.224.5-.5.5h-7c-.276,0-.5-.224-.5-.5V1.5Zm-4.5,10.5H1.5c-.827,0-1.5.673-1.5,1.5v4c0,2.481,2.019,4.5,4.5,4.5h4c.827,0,1.5-.673,1.5-1.5v-7c0-.827-.673-1.5-1.5-1.5Zm.5,8.5c0,.276-.224.5-.5.5h-4c-1.93,0-3.5-1.57-3.5-3.5v-4c0-.276.224-.5.5-.5h7c.276,0,.5.224.5.5v7Zm14.854,2.646l-3-3c.705-.862,1.146-1.948,1.146-3.146,0-2.757-2.243-5-5-5s-5,2.243-5,5,2.243,5,5,5c1.198,0,2.284-.441,3.146-1.146l3,3c.098.098.226.146.354.146s.256-.049.354-.146c.195-.195.195-.512,0-.707Zm-6.854-2.146c-2.206,0-4-1.794-4-4s1.794-4,4-4,4,1.794,4,4-1.794,4-4,4Z"/>
</svg>
