<?xml version="1.0" encoding="UTF-8"?>
<svg xmlns="http://www.w3.org/2000/svg" id="Layer_1" data-name="Layer 1" viewBox="0 0 24 24">
  <path d="m9.992,22.409c-.045.241-.255.41-.491.41-.03,0-.061-.002-.092-.008C3.957,21.809,0,17.052,0,11.5,0,5.159,5.159,0,11.5,0c5.552,0,10.309,3.958,11.311,9.41.05.271-.13.532-.402.582-.267.051-.531-.129-.582-.401-.914-4.978-5.257-8.59-10.326-8.59C5.71,1,1,5.71,1,11.5c0,5.069,3.612,9.413,8.591,10.327.271.05.451.311.401.582Zm2.008-16.909c0-.276-.224-.5-.5-.5s-.5.224-.5.5v5.706l-3.743,2.08c-.241.134-.328.438-.194.68.092.165.263.257.438.257.083,0,.166-.02.243-.063l4-2.222c.158-.088.257-.255.257-.437v-6Zm12,11.5v4c0,1.654-1.346,3-3,3h-6c-1.654,0-3-1.346-3-3v-4c0-1.302.839-2.402,2-2.816v-1.684c0-.276.224-.5.5-.5s.5.224.5.5v1.5h6v-1.5c0-.276.224-.5.5-.5s.5.224.5.5v1.684c1.161.414,2,1.514,2,2.816Zm-1,1h-10v3c0,1.103.897,2,2,2h6c1.103,0,2-.897,2-2v-3Zm0-1c0-1.103-.897-2-2-2h-6c-1.103,0-2,.897-2,2h10Z"/>
</svg>
