<svg id="Layer_1" viewBox="0 0 24 24" xmlns="http://www.w3.org/2000/svg" data-name="Layer 1"><path d="m21 23v.5c0 .276-.224.5-.5.5s-.5-.224-.5-.5v-.5c0-3.539-2.312-6.543-5.502-7.595l-1.459 2.188 1.446 5.786c.083.31-.166.625-.485.621-.224 0-.428-.151-.484-.379l-1.5-6c-.034-.137-.009-.281.069-.398l1.387-2.081c-.478-.089-.968-.142-1.471-.142s-.994.052-1.471.142l1.387 2.081c.078.117.103.262.069.398l-1.5 6c-.057.228-.26.379-.484.379-.319.004-.568-.311-.485-.621l1.446-5.786-1.459-2.188c-3.191 1.052-5.502 4.057-5.502 7.595v.5c0 .276-.224.5-.5.5s-.5-.224-.5-.5v-.5c0-4.962 4.038-9 9-9s9 4.038 9 9zm-15-17c-.018-3.235 2.679-6.019 6-6 3.309 0 6 2.691 6 6s-2.691 6-6 6-6-2.691-6-6zm8.438-4.338c-.843 2.569-3.215 4.338-5.938 4.338h-1.5c0 2.757 2.243 5 5 5s5-2.243 5-5c0-1.867-1.041-3.479-2.562-4.338zm-7.337 3.338h1.399c2.32 0 4.34-1.528 5.023-3.738-.483-.156-.988-.262-1.523-.262-2.414 0-4.434 1.721-4.899 4z"/></svg>