<?xml version="1.0" encoding="UTF-8"?>
<svg xmlns="http://www.w3.org/2000/svg" id="Layer_1" data-name="Layer 1" viewBox="0 0 24 24">
  <path d="m24,23.5c0,.276-.224.5-.5.5l-19.997-.003c-.919-.03-1.815-.363-2.477-1.024-.662-.662-1.026-1.541-1.026-2.476V.5C0,.224.224,0,.5,0s.5.224.5.5v19.997c0,.668.26,1.296.733,1.769.472.472,1.1.731,1.767.731h.002l19.998.003c.276,0,.5.224.5.5Zm0-10.145v3.91c0,.957-.778,1.735-1.735,1.735h-3.91c-.558,0-1.037-.32-1.25-.835s-.101-1.08.293-1.475l1.781-1.781-4.172-4.172c-.286-.286-.75-.285-1.037,0l-.745.745c-.676.676-1.774.676-2.45,0l-6.628-6.628c-.195-.195-.195-.512,0-.707s.512-.195.707,0l6.628,6.628c.286.285.75.285,1.036,0l.745-.745c.676-.676,1.775-.675,2.451,0l4.172,4.172,1.804-1.804c.395-.395.959-.505,1.475-.293.515.213.835.693.835,1.25Zm-1,0c0-.213-.174-.355-.36-.355-.073,0-.161.023-.243.105l-4.292,4.292c-.15.151-.104.319-.077.385.027.066.113.218.327.218h3.91c.405,0,.735-.33.735-.735v-3.91Z"/>
</svg>
