<?xml version="1.0" encoding="UTF-8"?>
<svg xmlns="http://www.w3.org/2000/svg" id="Layer_1" data-name="Layer 1" viewBox="0 0 24 24">
  <path d="m23.935,17.076l-2.004-11.358c-.38-2.154-2.244-3.718-4.431-3.718H6.081c-1.944,0-3.601,1.39-3.939,3.305L.065,17.076c-.216,1.225.118,2.473.917,3.425.799.953,1.971,1.499,3.214,1.499h1.304c.276,0,.5-.224.5-.5s-.224-.5-.5-.5h-1.304c-.947,0-1.84-.416-2.448-1.142s-.863-1.676-.699-2.608L3.126,5.479c.147-.83.623-1.528,1.281-1.97l2.607,14.773c.38,2.154,2.244,3.718,4.432,3.718h8.358c1.244,0,2.415-.546,3.214-1.499.799-.952,1.133-2.2.917-3.425Zm-1.683,2.782c-.608.726-1.501,1.142-2.448,1.142h-8.358c-1.702,0-3.151-1.216-3.447-2.892L5.349,3.09c.235-.059.48-.09.732-.09h11.418c1.701,0,3.151,1.216,3.447,2.892l2.004,11.358c.165.933-.09,1.883-.699,2.608Zm-4.361-11.858h-8.391c-.276,0-.5-.224-.5-.5s.224-.5.5-.5h8.391c.276,0,.5.224.5.5s-.224.5-.5.5Zm.706,4h-8.391c-.276,0-.5-.224-.5-.5s.224-.5.5-.5h8.391c.276,0,.5.224.5.5s-.224.5-.5.5Zm1.206,3.5c0,.276-.224.5-.5.5h-8.391c-.276,0-.5-.224-.5-.5s.224-.5.5-.5h8.391c.276,0,.5.224.5.5Z"/>
</svg>
