<?xml version="1.0" encoding="UTF-8"?>
<svg xmlns="http://www.w3.org/2000/svg" id="Layer_1" data-name="Layer 1" viewBox="0 0 24 24">
  <path d="M19,8.276v-1.276c0-3.86-3.141-7-7-7S5,3.14,5,7v1.276c-1.742,.621-3,2.271-3,4.224v7c0,2.481,2.019,4.5,4.5,4.5h11c2.481,0,4.5-2.019,4.5-4.5v-7c0-1.953-1.258-3.602-3-4.224Zm-13-1.276c0-3.309,2.691-6,6-6s6,2.691,6,6v1.051c-.166-.019-.329-.051-.5-.051H6.5c-.171,0-.334,.032-.5,.051v-1.051Zm15,12.5c0,1.93-1.57,3.5-3.5,3.5H6.5c-1.93,0-3.5-1.57-3.5-3.5v-7c0-1.93,1.57-3.5,3.5-3.5h11c1.93,0,3.5,1.57,3.5,3.5v7Zm-8.5-5v3c0,.276-.224,.5-.5,.5s-.5-.224-.5-.5v-3c0-.276,.224-.5,.5-.5s.5,.224,.5,.5Z"/>
</svg>
